<svg width="621" height="118" viewBox="0 0 621 118" fill="none" xmlns="http://www.w3.org/2000/svg">
<path d="M149.3 33.9H164.8L187.9 73.3L211 33.9H226.2V83.2H216.4V43.3H216.3L193 83.2H182.5L159.2 43.3H159.1V83.2H149.3V33.9Z" fill="white"/>
<path d="M239.1 58.6C239.1 37.8 244.3 33 271.1 33C297.9 33 303.1 37.8 303.1 58.6C303.1 79.4 298 84.2 271.1 84.2C244.2 84.2 239.1 79.4 239.1 58.6ZM271.1 75.5C290.7 75.5 293.1 73.6 293.1 58.5C293.1 43.4 290.8 41.6 271.1 41.6C251.4 41.6 249 43.5 249 58.5C249 73.5 251.3 75.5 271.1 75.5Z" fill="white"/>
<path d="M335 65.8L307.4 33.9H319.3L340.2 58L361 33.9H372.4L344.8 65.8V83.2H334.9V65.8H335Z" fill="white"/>
<path d="M391.7 33.9H404.4L432 83.2H420.5L415.1 73.4H380.4L375 83.2H364L391.6 33.9H391.7ZM410.4 64.8L397.7 41.7L385 64.8H410.3H410.4Z" fill="white"/>
<path d="M441.6 80.4C438.5 78.2 437.7 74.9 437.7 68.9V67.3H447.5V68C447.5 71.5 447.9 72.9 449.7 74C451.7 75.3 456.5 75.7 466.4 75.7C476.3 75.7 481.3 75.3 483.2 74C484.9 73 485.4 71.7 485.4 69.2C485.4 66.7 484.8 65.3 483.2 64.3C481.3 63 477.3 62.8 462.2 62.5C451 62.2 445.7 61.4 442.6 59.1C439.6 57 438.4 53.7 438.4 47.8C438.4 41.9 440 38.7 443.1 36.6C446.7 34.1 453 33.1 465.9 33.1C478.8 33.1 485.4 33.9 489.3 36.8C492.4 39 493.2 42.6 493.2 48.1V48.9H483.4C483.4 45.7 483.1 44.1 481.4 43.1C479.4 41.8 475 41.5 465.9 41.5C456.8 41.5 452.2 41.8 450.4 43C448.7 44 448.4 45.4 448.4 47.5C448.4 49.6 449.1 51.3 450.4 52.1C452 53.2 455.3 53.6 467.4 53.8C481.6 54.1 487.5 54.8 491.2 57.3C494.4 59.5 495.4 63.2 495.4 68.8C495.4 74.4 494 78.2 491 80.3C487.5 82.8 481.5 84.1 466.5 84.1C451.5 84.1 445.8 83.1 442 80.4H441.6Z" fill="white"/>
<path d="M524.8 42.5H501.4V33.9H558.1V42.5H534.7V83.2H524.8V42.5Z" fill="white"/>
<path d="M580.2 33.9H592.9L620.5 83.2H609L603.6 73.4H568.9L563.5 83.2H552.5L580.1 33.9H580.2ZM598.9 64.8L586.2 41.7L573.5 64.8H598.8H598.9Z" fill="white"/>
<path d="M58.6 113.2C88.7547 113.2 113.2 88.7547 113.2 58.6C113.2 28.4452 88.7547 4 58.6 4C28.4452 4 4 28.4452 4 58.6C4 88.7547 28.4452 113.2 58.6 113.2Z" stroke="white" stroke-width="8" stroke-miterlimit="10"/>
<path d="M49.7163 83.5167L77.883 33.575H85.7913L57.6246 83.5167H49.7163Z" fill="white"/>
<path d="M38.4499 83.5167H31.4082V60.4417L38.4499 72.0333V83.5167Z" fill="white"/>
<path d="M35.7417 43.1083L47.1167 64.0167L51.775 56.5417L43.7584 43.1083H35.7417Z" fill="url(#paint0_linear_713_2)"/>
<path d="M77.9917 47.4417V83.5167H85.7917V33.575L77.9917 47.4417Z" fill="url(#paint1_linear_713_2)"/>
<defs>
<linearGradient id="paint0_linear_713_2" x1="32.6" y1="32.925" x2="66.4001" y2="87.525" gradientUnits="userSpaceOnUse">
<stop offset="0.3" stop-color="#EBEBEB"/>
<stop offset="0.5" stop-color="#999999"/>
<stop offset="0.7" stop-color="#575757"/>
<stop offset="0.8" stop-color="#282828"/>
<stop offset="0.9" stop-color="#0A0A0A"/>
<stop offset="1"/>
</linearGradient>
<linearGradient id="paint1_linear_713_2" x1="82" y1="85.7917" x2="81.7834" y2="34.225" gradientUnits="userSpaceOnUse">
<stop offset="0.2" stop-color="#6361EE"/>
<stop offset="0.4" stop-color="#5150BF"/>
<stop offset="0.6" stop-color="#4745A2"/>
<stop offset="0.7" stop-color="#434298"/>
</linearGradient>
</defs>
</svg>
